<?xml version="1.0" encoding="UTF-8" standalone="no"?>
<svg
   xmlns:dc="http://purl.org/dc/elements/1.1/"
   xmlns:cc="http://creativecommons.org/ns#"
   xmlns:rdf="http://www.w3.org/1999/02/22-rdf-syntax-ns#"
   xmlns:svg="http://www.w3.org/2000/svg"
   xmlns="http://www.w3.org/2000/svg"
   viewBox="0 0 1365.3333 1024"
   height="1024"
   width="1365.3333"
   xml:space="preserve"
   id="svg2"
   version="1.1"><metadata
     id="metadata8"><rdf:RDF><cc:Work
         rdf:about=""><dc:format>image/svg+xml</dc:format><dc:type
           rdf:resource="http://purl.org/dc/dcmitype/StillImage" /></cc:Work></rdf:RDF></metadata><defs
     id="defs6"><clipPath
       id="clipPath20"
       clipPathUnits="userSpaceOnUse"><path
         id="path18"
         d="M 0,768 H 1024 V 0 H 0 Z" /></clipPath></defs><g
     transform="matrix(1.3333333,0,0,-1.3333333,0,1024)"
     id="g10"><path
       id="path12"
       style="fill:#8a7965;fill-opacity:1;fill-rule:nonzero;stroke:none"
       d="m 493.842,360.666 h -1.392 v 46.148 h 1.392 z" /><g
       id="g14"><g
         clip-path="url(#clipPath20)"
         id="g16"><g
           transform="translate(394.9165,406.6274)"
           id="g22"><path
             id="path24"
             style="fill:#fdb912;fill-opacity:1;fill-rule:nonzero;stroke:none"
             d="m 0,0 h 7.7 v -33.837 c 0,-3.29 1.303,-4.906 4.097,-4.906 2.794,0 4.097,1.616 4.097,4.906 V 0 h 7.7 v -33.526 c 0,-7.699 -4.471,-11.924 -11.797,-11.924 C 4.471,-45.45 0,-41.225 0,-33.526 Z" /></g><g
           transform="translate(441.4858,391.6631)"
           id="g26"><path
             id="path28"
             style="fill:#fdb912;fill-opacity:1;fill-rule:nonzero;stroke:none"
             d="m 0,0 v 3.479 c 0,3.786 -1.74,5.4 -3.728,5.4 -3.103,0 -4.098,-1.614 -4.098,-4.967 v -22.724 c 0,-3.351 0.995,-4.966 4.098,-4.966 2.797,0 3.728,1.615 3.728,4.531 v 5.404 h 7.7 v -5.153 c 0,-6.334 -3.727,-11.489 -11.428,-11.489 -8.07,0 -11.795,5.155 -11.795,11.489 V 4.097 c 0,6.335 3.725,11.487 11.795,11.487 C 3.973,15.584 7.7,9.996 7.7,3.292 V 0 Z" /></g><g
           transform="translate(475.3105,381.7852)"
           id="g30"><path
             id="path32"
             style="fill:#0074bc;fill-opacity:1;fill-rule:nonzero;stroke:none"
             d="m 0,0 c 2.646,1.195 5.482,4.156 5.482,11.464 0,9.705 -4.471,13.423 -13.23,13.423 h -2.873 l 1.26,-7.9 4.627,7.201 0.073,-0.013 -2.896,-8.612 7.754,4.751 0.046,-0.053 -6.361,-6.5 L 4.68,15.082 4.685,15.01 -5.604,11.511 4.704,7.937 4.68,7.872 -6.118,9.264 0.239,2.763 0.195,2.717 l -7.752,4.741 2.9,-8.603 -0.053,-0.033 -4.603,7.142 -1.306,-7.917 c 1.321,0.007 2.811,0.069 3.752,0.185 l 5.546,-18.838 h 7.937 z m -10.878,24.887 h -7.835 v -45.494 h 7.814 z" /></g><g
           transform="translate(510.8291,397.0864)"
           id="g34"><path
             id="path36"
             style="fill:#8a7965;fill-opacity:1;fill-rule:nonzero;stroke:none"
             d="m 0,0 v -23.612 h 8.423 v -2.376 H -2.808 V 0 Z" /></g><path
           id="path38"
           style="fill:#8a7965;fill-opacity:1;fill-rule:nonzero;stroke:none"
           d="m 527.929,371.099 h -2.808 v 25.988 h 2.808 z" /><g
           transform="translate(538.584,373.4746)"
           id="g40"><path
             id="path42"
             style="fill:#8a7965;fill-opacity:1;fill-rule:nonzero;stroke:none"
             d="m 0,0 h 2.808 c 3.383,0 5.183,1.476 5.183,4.823 0,3.42 -1.512,5.255 -5.183,5.255 H 0 Z m 0,12.454 h 1.584 c 4.031,0 5.831,1.223 5.831,4.751 0,2.952 -1.296,4.032 -4.607,4.032 H 0 Z m -2.808,11.158 h 6.912 c 3.887,0 6.119,-2.591 6.119,-6.407 0,-2.591 -1.153,-4.931 -3.96,-5.759 V 11.374 C 9.395,10.546 10.799,8.063 10.799,4.823 10.799,0 8.135,-2.376 2.447,-2.376 h -5.255 z" /></g><g
           transform="translate(559.4639,385.7124)"
           id="g44"><path
             id="path46"
             style="fill:#8a7965;fill-opacity:1;fill-rule:nonzero;stroke:none"
             d="m 0,0 h 2.447 c 4.032,0 5.327,1.584 5.327,4.499 0,2.916 -1.295,4.5 -5.327,4.5 L 0,8.999 Z m -2.808,11.374 h 6.263 c 4.176,0 7.127,-2.447 7.127,-6.73 0,-2.916 -1.296,-5.364 -4.175,-6.372 l 4.392,-12.886 H 7.847 L 3.671,-2.304 0,-2.448 v -12.166 h -2.808 z" /></g><g
           transform="translate(580.2354,381.1777)"
           id="g48"><path
             id="path50"
             style="fill:#8a7965;fill-opacity:1;fill-rule:nonzero;stroke:none"
             d="M 0,0 H 5.831 L 2.952,13.965 H 2.88 Z m 4.859,15.909 5.724,-25.988 H 7.775 l -1.547,7.703 h -6.624 l -1.547,-7.703 h -2.808 l 5.723,25.988 z" /></g><g
           transform="translate(599.208,385.7124)"
           id="g52"><path
             id="path54"
             style="fill:#8a7965;fill-opacity:1;fill-rule:nonzero;stroke:none"
             d="m 0,0 h 2.447 c 4.032,0 5.327,1.584 5.327,4.499 0,2.916 -1.295,4.5 -5.327,4.5 L 0,8.999 Z m -2.808,11.374 h 6.263 c 4.176,0 7.127,-2.447 7.127,-6.73 0,-2.916 -1.296,-5.364 -4.175,-6.372 l 4.392,-12.886 H 7.847 L 3.671,-2.304 0,-2.448 v -12.166 h -2.808 z" /></g><g
           transform="translate(617.8564,397.0864)"
           id="g56"><path
             id="path58"
             style="fill:#8a7965;fill-opacity:1;fill-rule:nonzero;stroke:none"
             d="M 0,0 4.463,-11.374 8.783,0 h 3.024 L 5.831,-14.973 V -25.988 H 3.023 v 11.015 L -3.023,0 Z" /></g></g></g></g></svg>